<svg preserveAspectRatio="none" overflow="visible" style="display: block;" width="20" height="20" viewBox="0 0 20 20" fill="none" xmlns="http://www.w3.org/2000/svg">
<path id="house" d="M12.333 19H7.66699V11.5791C7.66697 11.5792 7.66715 11.5781 7.66797 11.5762C7.66924 11.5734 7.67222 11.5677 7.67969 11.5605C7.69684 11.5443 7.73117 11.5265 7.77734 11.5264H12.2227C12.2688 11.5265 12.3032 11.5443 12.3203 11.5605C12.3278 11.5677 12.3308 11.5734 12.332 11.5762C12.3329 11.5781 12.333 11.5792 12.333 11.5791V19ZM14.333 11.5791C14.333 11.0167 14.0967 10.4886 13.6953 10.1084C13.2959 9.73009 12.7654 9.52648 12.2227 9.52637H7.77734C7.23459 9.52648 6.70411 9.73009 6.30469 10.1084C5.90331 10.4886 5.66699 11.0167 5.66699 11.5791V19H2.22266C1.88159 19 1.56444 18.8709 1.33887 18.6572C1.11513 18.4453 1 18.1697 1 17.8945V8.4209C0.999991 8.26887 1.03487 8.11676 1.10449 7.97461C1.17426 7.83217 1.27854 7.70148 1.41309 7.59375L1.41797 7.58887L9.19043 1.27832C9.40996 1.10255 9.69661 1 10 1C10.2654 1 10.5176 1.07858 10.7236 1.21582L10.8096 1.27832L18.582 7.58887L18.5869 7.59375C18.6878 7.67455 18.7719 7.76816 18.8369 7.87012L18.8955 7.97461C18.9651 8.11676 19 8.26887 19 8.4209V17.8945C19 18.1697 18.8849 18.4453 18.6611 18.6572C18.4356 18.8709 18.1184 19 17.7773 19H14.333V11.5791Z" stroke="#FFB800" stroke-width="2" stroke-linecap="round"/>
</svg>
